<svg width="1600" height="900" viewBox="0 0 1600 900" fill="none" xmlns="http://www.w3.org/2000/svg">
  <defs>
    <linearGradient id="bg" x1="90" y1="40" x2="1510" y2="860" gradientUnits="userSpaceOnUse">
      <stop stop-color="#15111F"/>
      <stop offset="1" stop-color="#08080D"/>
    </linearGradient>
    <linearGradient id="accent" x1="370" y1="210" x2="1270" y2="760" gradientUnits="userSpaceOnUse">
      <stop stop-color="#C084FC"/>
      <stop offset="1" stop-color="#7C3AED"/>
    </linearGradient>
    <filter id="shadow" x="-20%" y="-20%" width="140%" height="140%">
      <feDropShadow dx="0" dy="24" stdDeviation="28" flood-color="#000000" flood-opacity="0.45"/>
    </filter>
  </defs>

  <rect width="1600" height="900" rx="42" fill="url(#bg)"/>
  <circle cx="1310" cy="155" r="290" fill="#7C3AED" fill-opacity="0.13"/>
  <circle cx="230" cy="820" r="330" fill="#C084FC" fill-opacity="0.07"/>
  <path d="M0 735C280 610 445 835 730 714C1015 594 1242 780 1600 621V900H0V735Z" fill="#7C3AED" fill-opacity="0.05"/>

  <g transform="translate(100 82)">
    <rect width="64" height="64" rx="20" fill="url(#accent)"/>
    <path d="M19 21L32 43L45 21" stroke="white" stroke-width="5" stroke-linecap="round" stroke-linejoin="round"/>
    <text x="84" y="34" fill="white" font-family="Arial, sans-serif" font-size="28" font-weight="700">YoruService</text>
    <text x="84" y="58" fill="#A1A1AA" font-family="Arial, sans-serif" font-size="15">Marketplace · Home Service · AI Advisor</text>
  </g>

  <g filter="url(#shadow)">
    <rect x="155" y="190" width="1070" height="590" rx="30" fill="#101018" stroke="#FFFFFF" stroke-opacity="0.10"/>
    <rect x="155" y="190" width="1070" height="76" rx="30" fill="#171722"/>
    <rect x="155" y="236" width="1070" height="30" fill="#171722"/>
    <circle cx="198" cy="228" r="8" fill="#F87171"/>
    <circle cx="224" cy="228" r="8" fill="#FBBF24"/>
    <circle cx="250" cy="228" r="8" fill="#34D399"/>
    <rect x="310" y="211" width="250" height="34" rx="17" fill="#0B0B11"/>
    <text x="337" y="233" fill="#71717A" font-family="Arial, sans-serif" font-size="13">Partner Operations Dashboard</text>

    <rect x="183" y="290" width="208" height="458" rx="20" fill="#0B0B11"/>
    <rect x="205" y="315" width="164" height="42" rx="13" fill="#7C3AED" fill-opacity="0.25"/>
    <circle cx="225" cy="336" r="6" fill="#C084FC"/>
    <text x="245" y="341" fill="#E9D5FF" font-family="Arial, sans-serif" font-size="14">Overview</text>
    <g fill="#71717A" font-family="Arial, sans-serif" font-size="14">
      <text x="222" y="396">Products</text>
      <text x="222" y="442">Service Bookings</text>
      <text x="222" y="488">Professionals</text>
      <text x="222" y="534">Finance</text>
      <text x="222" y="580">AI Copilot</text>
      <text x="222" y="626">Privacy &amp; Audit</text>
    </g>

    <text x="431" y="322" fill="white" font-family="Arial, sans-serif" font-size="26" font-weight="700">Operations overview</text>
    <text x="431" y="348" fill="#71717A" font-family="Arial, sans-serif" font-size="13">Traceable commerce, booking, and AI-assisted insights</text>

    <g>
      <rect x="431" y="379" width="224" height="118" rx="18" fill="#171722" stroke="#FFFFFF" stroke-opacity="0.08"/>
      <text x="453" y="411" fill="#A1A1AA" font-family="Arial, sans-serif" font-size="12">PRODUCT ORDERS</text>
      <text x="453" y="456" fill="white" font-family="Arial, sans-serif" font-size="30" font-weight="700">1,284</text>
      <text x="558" y="456" fill="#34D399" font-family="Arial, sans-serif" font-size="12">+12.8%</text>
      <rect x="453" y="473" width="178" height="5" rx="2.5" fill="#27272A"/>
      <rect x="453" y="473" width="128" height="5" rx="2.5" fill="#8B5CF6"/>
    </g>

    <g>
      <rect x="673" y="379" width="224" height="118" rx="18" fill="#171722" stroke="#FFFFFF" stroke-opacity="0.08"/>
      <text x="695" y="411" fill="#A1A1AA" font-family="Arial, sans-serif" font-size="12">SERVICE BOOKINGS</text>
      <text x="695" y="456" fill="white" font-family="Arial, sans-serif" font-size="30" font-weight="700">846</text>
      <text x="783" y="456" fill="#34D399" font-family="Arial, sans-serif" font-size="12">94% complete</text>
      <rect x="695" y="473" width="178" height="5" rx="2.5" fill="#27272A"/>
      <rect x="695" y="473" width="158" height="5" rx="2.5" fill="#C084FC"/>
    </g>

    <g>
      <rect x="915" y="379" width="278" height="118" rx="18" fill="#171722" stroke="#FFFFFF" stroke-opacity="0.08"/>
      <text x="937" y="411" fill="#A1A1AA" font-family="Arial, sans-serif" font-size="12">AI COPILOT</text>
      <text x="937" y="446" fill="white" font-family="Arial, sans-serif" font-size="16" font-weight="700">Weekly business summary ready</text>
      <text x="937" y="474" fill="#A78BFA" font-family="Arial, sans-serif" font-size="12">Grounded in verified operational data</text>
    </g>

    <rect x="431" y="519" width="462" height="201" rx="20" fill="#171722" stroke="#FFFFFF" stroke-opacity="0.08"/>
    <text x="453" y="550" fill="white" font-family="Arial, sans-serif" font-size="16" font-weight="700">Order &amp; booking activity</text>
    <path d="M459 670C502 631 528 649 567 603C605 557 634 620 677 575C718 532 757 576 801 546C833 524 850 539 873 535" stroke="url(#accent)" stroke-width="5" stroke-linecap="round"/>
    <g stroke="#FFFFFF" stroke-opacity="0.08">
      <path d="M453 588H871"/>
      <path d="M453 624H871"/>
      <path d="M453 660H871"/>
      <path d="M453 696H871"/>
    </g>

    <rect x="915" y="519" width="278" height="201" rx="20" fill="#171722" stroke="#FFFFFF" stroke-opacity="0.08"/>
    <text x="937" y="550" fill="white" font-family="Arial, sans-serif" font-size="16" font-weight="700">Live service flow</text>
    <g font-family="Arial, sans-serif" font-size="11">
      <rect x="937" y="574" width="112" height="34" rx="10" fill="#7C3AED" fill-opacity="0.20"/>
      <text x="959" y="595" fill="#E9D5FF">CONFIRMED</text>
      <rect x="1061" y="574" width="104" height="34" rx="10" fill="#2563EB" fill-opacity="0.18"/>
      <text x="1081" y="595" fill="#BFDBFE">ASSIGNED</text>
      <rect x="937" y="620" width="112" height="34" rx="10" fill="#F59E0B" fill-opacity="0.18"/>
      <text x="967" y="641" fill="#FDE68A">EN ROUTE</text>
      <rect x="1061" y="620" width="104" height="34" rx="10" fill="#10B981" fill-opacity="0.18"/>
      <text x="1085" y="641" fill="#A7F3D0">IN SERVICE</text>
    </g>
    <text x="937" y="688" fill="#71717A" font-family="Arial, sans-serif" font-size="12">Separate, auditable state transitions</text>
  </g>

  <g filter="url(#shadow)">
    <rect x="1252" y="238" width="240" height="494" rx="42" fill="#09090E" stroke="#FFFFFF" stroke-opacity="0.13" stroke-width="2"/>
    <rect x="1270" y="263" width="204" height="445" rx="29" fill="#F8F7FC"/>
    <rect x="1333" y="250" width="78" height="17" rx="8.5" fill="#09090E"/>
    <text x="1290" y="305" fill="#18181B" font-family="Arial, sans-serif" font-size="13" font-weight="700">Good morning, Aidil</text>
    <text x="1290" y="328" fill="#71717A" font-family="Arial, sans-serif" font-size="10">What do you need today?</text>
    <rect x="1290" y="350" width="164" height="38" rx="19" fill="white" stroke="#E4E4E7"/>
    <text x="1310" y="373" fill="#A1A1AA" font-family="Arial, sans-serif" font-size="10">Search products or services</text>
    <text x="1290" y="425" fill="#18181B" font-family="Arial, sans-serif" font-size="12" font-weight="700">Explore</text>
    <rect x="1290" y="445" width="75" height="74" rx="16" fill="#EDE9FE"/>
    <circle cx="1328" cy="474" r="14" fill="#8B5CF6" fill-opacity="0.32"/>
    <text x="1308" y="505" fill="#5B21B6" font-family="Arial, sans-serif" font-size="9">Products</text>
    <rect x="1379" y="445" width="75" height="74" rx="16" fill="#F3E8FF"/>
    <circle cx="1417" cy="474" r="14" fill="#C084FC" fill-opacity="0.38"/>
    <text x="1396" y="505" fill="#7E22CE" font-family="Arial, sans-serif" font-size="9">Services</text>
    <rect x="1290" y="540" width="164" height="122" rx="18" fill="#18181B"/>
    <text x="1308" y="570" fill="#D8B4FE" font-family="Arial, sans-serif" font-size="10">AI CUSTOMER ADVISOR</text>
    <text x="1308" y="598" fill="white" font-family="Arial, sans-serif" font-size="12" font-weight="700">Get a grounded recommendation</text>
    <text x="1308" y="620" fill="#A1A1AA" font-family="Arial, sans-serif" font-size="9">Based on your goal, budget, location,</text>
    <text x="1308" y="634" fill="#A1A1AA" font-family="Arial, sans-serif" font-size="9">schedule, and available catalog.</text>
    <rect x="1308" y="646" width="70" height="22" rx="11" fill="#7C3AED"/>
    <text x="1323" y="661" fill="white" font-family="Arial, sans-serif" font-size="8">Start chat</text>
  </g>
</svg>
